<svg width="372" height="66" viewBox="0 0 372 66" fill="none" xmlns="http://www.w3.org/2000/svg">
<path d="M122.291 57.4162C120.416 59.0288 118.316 60.2664 115.991 61.1289C113.666 61.9914 111.256 62.4227 108.762 62.4227C106.85 62.4227 105.003 62.1696 103.221 61.6633C101.459 61.1758 99.7994 60.482 98.2431 59.582C96.7055 58.6632 95.2992 57.5662 94.0241 56.2912C92.7491 55.0161 91.6522 53.6098 90.7334 52.0723C89.8333 50.516 89.1302 48.8565 88.6239 47.094C88.1364 45.3126 87.8926 43.4657 87.8926 41.5531C87.8926 39.6405 88.1364 37.7936 88.6239 36.0123C89.1302 34.2309 89.8333 32.5715 90.7334 31.0339C91.6522 29.4776 92.7491 28.0619 94.0241 26.7869C95.2992 25.5118 96.7055 24.4243 98.2431 23.5243C99.7994 22.6055 101.459 21.9023 103.221 21.4148C105.003 20.9085 106.85 20.6554 108.762 20.6554C111.256 20.6554 113.666 21.0867 115.991 21.9492C118.316 22.793 120.416 24.0305 122.291 25.6618L118.016 32.6934C116.834 31.4183 115.437 30.4433 113.825 29.7683C112.212 29.0745 110.525 28.7276 108.762 28.7276C106.981 28.7276 105.312 29.0651 103.756 29.7401C102.199 30.4152 100.84 31.334 99.6775 32.4965C98.5149 33.6403 97.5962 34.9997 96.9211 36.5748C96.2461 38.1311 95.9086 39.7905 95.9086 41.5531C95.9086 43.3157 96.2461 44.9751 96.9211 46.5314C97.5962 48.069 98.5149 49.419 99.6775 50.5816C100.84 51.7441 102.199 52.6629 103.756 53.338C105.312 54.013 106.981 54.3505 108.762 54.3505C110.525 54.3505 112.212 54.013 113.825 53.338C115.437 52.6442 116.834 51.6598 118.016 50.3847L122.291 57.4162ZM153.03 45.4345V37.3623C153.03 36.256 152.815 35.2154 152.384 34.2403C151.971 33.2465 151.399 32.384 150.668 31.6527C149.937 30.9214 149.074 30.3495 148.08 29.937C147.105 29.5058 146.065 29.2901 144.958 29.2901C143.852 29.2901 142.802 29.5058 141.808 29.937C140.833 30.3495 139.98 30.9214 139.249 31.6527C138.517 32.384 137.936 33.2465 137.505 34.2403C137.092 35.2154 136.886 36.256 136.886 37.3623V45.4345H153.03ZM161.103 61.5508H153.03V53.4786H136.886V61.5508H128.842V37.3623C128.842 35.131 129.264 33.0403 130.108 31.0902C130.951 29.1214 132.095 27.4057 133.539 25.9431C135.002 24.4806 136.708 23.3274 138.658 22.4836C140.627 21.6398 142.727 21.2179 144.958 21.2179C147.19 21.2179 149.28 21.6398 151.23 22.4836C153.199 23.3274 154.915 24.4806 156.377 25.9431C157.84 27.4057 158.993 29.1214 159.837 31.0902C160.681 33.0403 161.103 35.131 161.103 37.3623V61.5508ZM210.434 61.5508H202.39V32.7496C202.39 32.1871 202.277 31.6621 202.052 31.1746C201.846 30.687 201.555 30.2652 201.18 29.9089C200.824 29.5339 200.402 29.2432 199.914 29.037C199.427 28.8307 198.902 28.7276 198.339 28.7276C197.777 28.7276 197.252 28.8307 196.764 29.037C196.277 29.2432 195.846 29.5339 195.471 29.9089C195.114 30.2652 194.833 30.687 194.627 31.1746C194.421 31.6621 194.317 32.1871 194.317 32.7496V61.5508H186.245V32.7496C186.245 32.1871 186.142 31.6621 185.936 31.1746C185.73 30.687 185.439 30.2652 185.064 29.9089C184.708 29.5339 184.286 29.2432 183.798 29.037C183.311 28.8307 182.786 28.7276 182.223 28.7276C181.661 28.7276 181.136 28.8307 180.648 29.037C180.161 29.2432 179.729 29.5339 179.354 29.9089C178.998 30.2652 178.717 30.687 178.511 31.1746C178.304 31.6621 178.201 32.1871 178.201 32.7496V61.5508H170.129V32.7496C170.129 31.0808 170.438 29.5151 171.057 28.0526C171.695 26.5713 172.557 25.2868 173.645 24.1993C174.751 23.093 176.035 22.2305 177.498 21.6117C178.979 20.9742 180.554 20.6554 182.223 20.6554C183.723 20.6554 185.167 20.9273 186.555 21.4711C187.942 21.9961 189.189 22.7649 190.295 23.7774C191.402 22.7649 192.639 21.9961 194.008 21.4711C195.396 20.9273 196.839 20.6554 198.339 20.6554C200.008 20.6554 201.574 20.9742 203.036 21.6117C204.518 22.2305 205.802 23.093 206.89 24.1993C207.996 25.2868 208.859 26.5713 209.477 28.0526C210.115 29.5151 210.434 31.0808 210.434 32.7496V61.5508ZM247.614 61.5508H219.966V21.2179H247.614V29.2901H228.038V37.3623H241.286V45.4345H228.038V53.4786H247.614V61.5508ZM283.81 61.5508H255.572V21.2179H263.644V53.4786H283.81V61.5508ZM328.444 41.5531C328.444 43.4657 328.191 45.3126 327.685 47.094C327.197 48.8565 326.503 50.516 325.603 52.0723C324.703 53.6098 323.616 55.0161 322.341 56.2912C321.066 57.5662 319.659 58.6632 318.122 59.582C316.584 60.482 314.925 61.1758 313.144 61.6633C311.362 62.1696 309.515 62.4227 307.603 62.4227C305.69 62.4227 303.843 62.1696 302.062 61.6633C300.299 61.1758 298.64 60.482 297.083 59.582C295.546 58.6632 294.14 57.5662 292.865 56.2912C291.59 55.0161 290.493 53.6098 289.574 52.0723C288.674 50.516 287.971 48.8565 287.464 47.094C286.977 45.3126 286.733 43.4657 286.733 41.5531C286.733 39.6405 286.977 37.7936 287.464 36.0123C287.971 34.2309 288.674 32.5715 289.574 31.0339C290.493 29.4964 291.59 28.0901 292.865 26.815C294.14 25.54 295.546 24.4524 297.083 23.5524C298.64 22.6524 300.299 21.9586 302.062 21.4711C303.843 20.9648 305.69 20.7117 307.603 20.7117C309.515 20.7117 311.362 20.9648 313.144 21.4711C314.925 21.9586 316.584 22.6524 318.122 23.5524C319.659 24.4524 321.066 25.54 322.341 26.815C323.616 28.0901 324.703 29.4964 325.603 31.0339C326.503 32.5715 327.197 34.2309 327.685 36.0123C328.191 37.7936 328.444 39.6405 328.444 41.5531ZM320.428 41.5531C320.428 39.7905 320.091 38.1311 319.416 36.5748C318.741 34.9997 317.822 33.6403 316.659 32.4965C315.515 31.334 314.156 30.4152 312.581 29.7401C311.025 29.0651 309.365 28.7276 307.603 28.7276C305.821 28.7276 304.153 29.0651 302.596 29.7401C301.04 30.4152 299.68 31.334 298.518 32.4965C297.355 33.6403 296.437 34.9997 295.762 36.5748C295.087 38.1311 294.749 39.7905 294.749 41.5531C294.749 43.3157 295.087 44.9751 295.762 46.5314C296.437 48.069 297.355 49.419 298.518 50.5816C299.68 51.7441 301.04 52.6629 302.596 53.338C304.153 54.013 305.821 54.3505 307.603 54.3505C309.365 54.3505 311.025 54.013 312.581 53.338C314.156 52.6629 315.515 51.7441 316.659 50.5816C317.822 49.419 318.741 48.069 319.416 46.5314C320.091 44.9751 320.428 43.3157 320.428 41.5531ZM351.702 61.5508H343.658V29.2901H331.536V21.2179H363.796V29.2901H351.702V61.5508Z" fill="#104547"/>
<path fill-rule="evenodd" clip-rule="evenodd" d="M62.2911 21.6835C62.2911 21.8611 62.2887 22.0381 62.2841 22.2147C62.1858 25.9656 64.2499 29.9026 67.5211 31.7406C74.2131 35.5007 78.6848 42.3155 78.6848 50.0984C78.6848 53.441 77.86 56.605 76.3887 59.4251C75.492 61.1441 73.6174 62.0469 71.6786 62.0469H7.14291C5.20413 62.0469 3.32958 61.1441 2.43282 59.4251C0.961536 56.605 0.136719 53.441 0.136719 50.0984C0.136719 42.4484 4.4571 35.7336 10.9597 31.9358C14.1693 30.0614 16.1533 26.1521 16.0149 22.4379C16.0055 22.1875 16.0008 21.936 16.0008 21.6835C16.0008 9.83587 26.3632 0.231445 39.1459 0.231445C51.9286 0.231445 62.2911 9.83587 62.2911 21.6835Z" fill="#104547"/>
<path fill-rule="evenodd" clip-rule="evenodd" d="M31.149 16.3545C31.8172 16.3545 32.3589 16.8962 32.3589 17.5644V19.2225C32.3589 19.8908 32.9006 20.4324 33.5688 20.4324H35.8505C36.5187 20.4324 37.0604 19.8908 37.0604 19.2225V17.5644C37.0604 16.8962 37.6021 16.3545 38.2703 16.3545H40.5524C41.2206 16.3545 41.7623 16.8962 41.7623 17.5644V19.2227C41.7623 19.8909 42.304 20.4326 42.9722 20.4326H45.2539C45.9221 20.4326 46.4638 19.8909 46.4638 19.2227V17.5644C46.4638 16.8962 47.0055 16.3545 47.6737 16.3545H50.1888C50.7869 16.3545 51.2953 16.7916 51.385 17.383L58.2608 62.7225C58.3718 63.4546 57.8051 64.1138 57.0646 64.1138H21.759C21.0185 64.1138 20.4517 63.4546 20.5628 62.7225L27.4386 17.383C27.5283 16.7916 28.0367 16.3545 28.6348 16.3545H31.149Z" fill="white"/>
<path fill-rule="evenodd" clip-rule="evenodd" d="M43.0992 50.0887C45.1724 48.9647 46.5587 46.9216 46.5587 44.5876C46.5587 41.0416 43.3586 38.167 39.4112 38.167C35.4637 38.167 32.2637 41.0416 32.2637 44.5876C32.2637 46.9217 33.6501 48.9648 35.7235 50.0888C35.7121 50.1295 35.7028 50.171 35.6956 50.2134L33.9322 60.6349C33.8073 61.3733 34.3763 62.0467 35.1252 62.0467H43.6975C44.4464 62.0467 45.0154 61.3733 44.8905 60.6349L43.1271 50.2134C43.1199 50.171 43.1105 50.1294 43.0992 50.0887Z" fill="#104547"/>
<ellipse cx="34.9017" cy="30.9722" rx="2.63798" ry="2.64403" fill="#104547"/>
<ellipse cx="43.9192" cy="30.9722" rx="2.63798" ry="2.64403" fill="#104547"/>
</svg>
