<?xml version="1.0" encoding="UTF-8"?>
<!-- Generator: Adobe Illustrator 23.0.1, SVG Export Plug-In . SVG Version: 6.00 Build 0)  -->
<svg version="1.1" id="Layer_1" xmlns="http://www.w3.org/2000/svg" xmlns:xlink="http://www.w3.org/1999/xlink" x="0px" y="0px" viewBox="0 0 414 70" style="enable-background:new 0 0 414 70;" xml:space="preserve">
<style type="text/css">
	.st0{fill:#3F3E40;}
	.st1{fill:#005F7A;}
</style>
<g>
	<g>
		<g>
			<path class="st0" d="M0.62,33.9c0-2.66,0.46-5.18,1.38-7.56c0.92-2.37,2.25-4.46,4-6.25c1.74-1.79,3.85-3.22,6.32-4.29     c2.47-1.07,5.25-1.6,8.36-1.6c4.17,0,7.71,0.9,10.64,2.69c2.93,1.79,5.12,4.14,6.58,7.05l-9.52,2.91     c-0.82-1.4-1.91-2.48-3.27-3.23c-1.36-0.75-2.86-1.13-4.51-1.13c-1.41,0-2.71,0.28-3.92,0.84c-1.21,0.56-2.26,1.33-3.16,2.33     c-0.9,0.99-1.6,2.19-2.11,3.6c-0.51,1.41-0.76,2.95-0.76,4.65c0,1.7,0.27,3.25,0.8,4.65c0.53,1.41,1.25,2.62,2.14,3.63     c0.9,1.02,1.95,1.81,3.16,2.36c1.21,0.56,2.49,0.84,3.85,0.84c1.74,0,3.35-0.44,4.83-1.31c1.48-0.87,2.51-1.94,3.09-3.2     l9.52,2.91c-1.31,2.91-3.46,5.28-6.47,7.12c-3,1.84-6.61,2.76-10.83,2.76c-3.1,0-5.88-0.53-8.36-1.6     C9.92,51,7.81,49.56,6.07,47.74s-3.09-3.92-4.03-6.32S0.62,36.51,0.62,33.9z"/>
			<path class="st0" d="M76.74,52.93H67V31.57c0-3-0.56-5.22-1.67-6.65c-1.11-1.43-2.69-2.14-4.72-2.14c-0.87,0-1.79,0.19-2.76,0.58     c-0.97,0.39-1.89,0.93-2.76,1.63c-0.87,0.7-1.67,1.54-2.4,2.51c-0.73,0.97-1.26,2.03-1.6,3.2v22.23h-9.74V-0.11h9.74v22.01     c1.4-2.47,3.3-4.37,5.7-5.7c2.4-1.33,5.05-2,7.96-2c2.47,0,4.48,0.42,6.03,1.27c1.55,0.85,2.76,1.97,3.63,3.38     c0.87,1.41,1.48,3,1.82,4.8c0.34,1.79,0.51,3.63,0.51,5.52V52.93z"/>
			<path class="st0" d="M100.55,53.66c-3.1,0-5.89-0.53-8.36-1.6c-2.47-1.06-4.57-2.51-6.28-4.32c-1.72-1.82-3.04-3.91-3.96-6.29     c-0.92-2.37-1.38-4.87-1.38-7.48c0-2.66,0.46-5.18,1.38-7.56c0.92-2.37,2.24-4.47,3.96-6.29c1.72-1.82,3.81-3.26,6.28-4.32     s5.26-1.6,8.36-1.6c3.1,0,5.87,0.53,8.32,1.6c2.45,1.07,4.53,2.51,6.25,4.32c1.72,1.82,3.04,3.91,3.96,6.29     c0.92,2.37,1.38,4.89,1.38,7.56c0,2.62-0.46,5.11-1.38,7.48c-0.92,2.37-2.23,4.47-3.92,6.29c-1.7,1.82-3.78,3.26-6.25,4.32     C106.43,53.13,103.64,53.66,100.55,53.66z M90.59,33.97c0,1.7,0.26,3.23,0.76,4.61c0.51,1.38,1.21,2.58,2.11,3.6     c0.9,1.02,1.95,1.81,3.16,2.36c1.21,0.56,2.52,0.84,3.92,0.84c1.4,0,2.71-0.28,3.92-0.84c1.21-0.56,2.26-1.34,3.16-2.36     c0.9-1.02,1.6-2.23,2.11-3.63c0.51-1.4,0.76-2.95,0.76-4.65c0-1.65-0.25-3.17-0.76-4.58c-0.51-1.4-1.21-2.62-2.11-3.63     c-0.9-1.02-1.95-1.8-3.16-2.36c-1.21-0.56-2.52-0.84-3.92-0.84c-1.41,0-2.71,0.29-3.92,0.87c-1.21,0.58-2.26,1.38-3.16,2.4     c-0.9,1.02-1.6,2.23-2.11,3.63C90.85,30.8,90.59,32.32,90.59,33.97z"/>
			<path class="st0" d="M147.26,23.29c-2.95,0.05-5.6,0.62-7.92,1.71c-2.32,1.09-3.99,2.72-5.01,4.9v23.03h-9.74V14.86h8.94V23     c0.68-1.31,1.48-2.48,2.4-3.52c0.92-1.04,1.91-1.95,2.98-2.72c1.06-0.77,2.14-1.37,3.23-1.78c1.09-0.41,2.14-0.62,3.16-0.62     c0.53,0,0.93,0,1.2,0c0.27,0,0.52,0.02,0.76,0.07V23.29z"/>
			<path class="st0" d="M165.8,53.66c-2.62,0-5.04-0.51-7.27-1.53c-2.23-1.02-4.14-2.42-5.74-4.21c-1.6-1.79-2.85-3.89-3.74-6.29     c-0.9-2.4-1.34-4.98-1.34-7.74c0-2.76,0.42-5.33,1.27-7.7c0.85-2.37,2.02-4.46,3.52-6.25c1.5-1.79,3.29-3.2,5.38-4.21     s4.36-1.53,6.83-1.53c2.81,0,5.34,0.68,7.59,2.03c2.25,1.36,4.01,3.12,5.27,5.3V-0.11h9.74v41.85c0,1.02,0.17,1.74,0.51,2.18     c0.34,0.44,0.92,0.68,1.74,0.73v8.28c-1.7,0.34-3.08,0.51-4.14,0.51c-1.74,0-3.17-0.44-4.29-1.31c-1.11-0.87-1.74-2.01-1.89-3.41     l-0.22-2.4c-1.41,2.42-3.31,4.25-5.7,5.49C170.93,53.04,168.42,53.66,165.8,53.66z M168.35,45.38c0.92,0,1.87-0.16,2.83-0.47     c0.97-0.31,1.87-0.76,2.69-1.34c0.82-0.58,1.56-1.26,2.22-2.03c0.65-0.77,1.15-1.62,1.49-2.54V29.9     c-0.39-1.06-0.93-2.05-1.63-2.94c-0.7-0.9-1.5-1.67-2.4-2.32c-0.9-0.65-1.84-1.17-2.83-1.56c-0.99-0.39-1.97-0.58-2.94-0.58     c-1.45,0-2.8,0.32-4.03,0.95c-1.24,0.63-2.29,1.49-3.16,2.58c-0.87,1.09-1.55,2.34-2.03,3.74c-0.48,1.41-0.73,2.86-0.73,4.36     c0,1.6,0.27,3.08,0.8,4.43c0.53,1.36,1.26,2.54,2.18,3.56c0.92,1.02,2.02,1.82,3.3,2.4C165.38,45.09,166.8,45.38,168.35,45.38z"/>
			<path class="st0" d="M246.82,52.93h-9.74V31.57c0-3-0.56-5.22-1.67-6.65c-1.11-1.43-2.69-2.14-4.72-2.14     c-0.87,0-1.79,0.19-2.76,0.58c-0.97,0.39-1.89,0.93-2.76,1.63c-0.87,0.7-1.67,1.54-2.4,2.51c-0.73,0.97-1.26,2.03-1.6,3.2v22.23     h-9.74V-0.11h9.74v22.01c1.4-2.47,3.3-4.37,5.7-5.7c2.4-1.33,5.05-2,7.96-2c2.47,0,4.48,0.42,6.03,1.27     c1.55,0.85,2.76,1.97,3.63,3.38c0.87,1.41,1.48,3,1.82,4.8c0.34,1.79,0.51,3.63,0.51,5.52V52.93z"/>
			<path class="st0" d="M270.7,53.66c-3.05,0-5.81-0.52-8.28-1.56c-2.47-1.04-4.58-2.46-6.32-4.25c-1.74-1.79-3.09-3.87-4.03-6.25     c-0.95-2.37-1.42-4.87-1.42-7.48c0-2.71,0.46-5.27,1.38-7.67s2.25-4.51,4-6.32c1.74-1.82,3.86-3.26,6.36-4.32     c2.49-1.07,5.29-1.6,8.39-1.6c3.1,0,5.87,0.53,8.32,1.6s4.53,2.5,6.25,4.29c1.72,1.79,3.03,3.88,3.92,6.25     c0.9,2.37,1.34,4.84,1.34,7.41c0,0.63-0.01,1.24-0.04,1.82c-0.02,0.58-0.09,1.07-0.18,1.45h-29.43c0.15,1.5,0.51,2.83,1.09,4     s1.33,2.16,2.25,2.98c0.92,0.82,1.96,1.45,3.12,1.89c1.16,0.44,2.37,0.65,3.63,0.65c1.94,0,3.76-0.47,5.49-1.42     c1.72-0.94,2.89-2.19,3.52-3.74l8.36,2.33c-1.41,2.91-3.65,5.29-6.72,7.16C278.63,52.73,274.96,53.66,270.7,53.66z M280.58,30.7     c-0.24-2.86-1.3-5.15-3.16-6.87c-1.87-1.72-4.13-2.58-6.79-2.58c-1.31,0-2.53,0.23-3.67,0.69c-1.14,0.46-2.14,1.1-3.02,1.93     c-0.87,0.82-1.59,1.82-2.14,2.98c-0.56,1.16-0.88,2.45-0.98,3.85H280.58z"/>
			<path class="st0" d="M304.83,53.66c-1.84,0-3.56-0.3-5.16-0.91c-1.6-0.61-2.98-1.45-4.14-2.54c-1.16-1.09-2.07-2.36-2.73-3.81     c-0.65-1.45-0.98-3.05-0.98-4.8c0-1.79,0.4-3.45,1.2-4.98c0.8-1.53,1.91-2.82,3.34-3.89c1.43-1.06,3.14-1.9,5.12-2.51     c1.99-0.61,4.17-0.91,6.54-0.91c1.69,0,3.35,0.15,4.98,0.44c1.62,0.29,3.06,0.7,4.32,1.24v-2.18c0-2.52-0.72-4.46-2.14-5.81     c-1.43-1.36-3.55-2.03-6.36-2.03c-2.03,0-4.02,0.36-5.96,1.09c-1.94,0.73-3.92,1.79-5.96,3.2l-2.98-6.18     c4.89-3.24,10.17-4.87,15.84-4.87c5.47,0,9.72,1.34,12.75,4.03c3.03,2.69,4.54,6.58,4.54,11.66v11.84c0,1.02,0.18,1.74,0.54,2.18     s0.96,0.68,1.78,0.73v8.28c-1.65,0.34-3.08,0.51-4.29,0.51c-1.84,0-3.26-0.41-4.25-1.23c-0.99-0.82-1.61-1.91-1.85-3.27     l-0.22-2.11c-1.7,2.23-3.76,3.92-6.18,5.09C310.18,53.08,307.59,53.66,304.83,53.66z M307.59,46.54c1.65,0,3.21-0.29,4.69-0.87     c1.48-0.58,2.63-1.36,3.45-2.32c1.06-0.82,1.6-1.74,1.6-2.76v-4.36c-1.16-0.44-2.42-0.79-3.78-1.05c-1.36-0.27-2.66-0.4-3.92-0.4     c-2.52,0-4.58,0.57-6.18,1.71c-1.6,1.14-2.4,2.58-2.4,4.32c0,1.65,0.63,3.02,1.89,4.11C304.2,46,305.75,46.54,307.59,46.54z"/>
			<path class="st0" d="M333.49-0.11h9.74v40.83c0,1.41,0.34,2.5,1.02,3.27c0.68,0.78,1.65,1.16,2.91,1.16     c0.58,0,1.22-0.1,1.93-0.29c0.7-0.19,1.37-0.44,2-0.73l1.31,7.41c-1.31,0.63-2.83,1.11-4.58,1.45c-1.74,0.34-3.32,0.51-4.72,0.51     c-3.05,0-5.41-0.81-7.08-2.43c-1.67-1.62-2.51-3.93-2.51-6.94V-0.11z"/>
			<path class="st0" d="M375.61,50.97c-1.31,0.58-2.91,1.16-4.8,1.74c-1.89,0.58-3.88,0.87-5.96,0.87c-1.36,0-2.63-0.17-3.81-0.51     c-1.19-0.34-2.23-0.88-3.13-1.63c-0.9-0.75-1.61-1.72-2.14-2.91c-0.53-1.19-0.8-2.63-0.8-4.32V22.35h-5.01v-7.48h5.01V2.51h9.74     v12.35h7.99v7.48h-7.99v18.6c0,1.36,0.35,2.31,1.05,2.87c0.7,0.56,1.56,0.84,2.58,0.84c1.02,0,2.01-0.17,2.98-0.51     c0.97-0.34,1.74-0.63,2.32-0.87L375.61,50.97z"/>
			<path class="st0" d="M413.38,52.93h-9.74V31.57c0-3-0.56-5.22-1.67-6.65c-1.11-1.43-2.69-2.14-4.72-2.14     c-0.87,0-1.79,0.19-2.76,0.58c-0.97,0.39-1.89,0.93-2.76,1.63c-0.87,0.7-1.67,1.54-2.4,2.51c-0.73,0.97-1.26,2.03-1.6,3.2v22.23     H378V-0.11h9.74v22.01c1.4-2.47,3.3-4.37,5.7-5.7c2.4-1.33,5.05-2,7.96-2c2.47,0,4.48,0.42,6.03,1.27     c1.55,0.85,2.76,1.97,3.63,3.38c0.87,1.41,1.48,3,1.82,4.8c0.34,1.79,0.51,3.63,0.51,5.52V52.93z"/>
		</g>
	</g>
	<rect x="1.4" y="61.61" class="st1" width="187.89" height="8.5"/>
</g>
</svg>