<svg width="78" height="55" viewBox="0 0 78 55" fill="none" xmlns="http://www.w3.org/2000/svg">
<path fill-rule="evenodd" clip-rule="evenodd" d="M74.4698 28.9894L55.1136 43.6314L55.0154 43.7143C54.1599 44.5082 53.1731 45.0023 52.0397 45.1608C51.5756 45.2611 51.1128 45.3119 50.6653 45.3119L33.8551 47.7801C31.4123 48.1405 28.9173 48.3238 26.4413 48.3238H9.86701V27.8921C11.1611 26.9856 13.1997 25.7533 15.3888 24.8381C15.4156 24.8295 15.4423 24.827 15.4691 24.8158C17.0169 24.1719 18.9204 23.5824 20.6645 23.5948C20.7245 23.596 20.7844 23.5985 20.8456 23.6009C21.1095 23.6096 21.3683 23.6356 21.622 23.6753C21.7087 23.6889 21.7954 23.7025 21.8808 23.7198C22.1116 23.7681 22.3347 23.8363 22.5527 23.9143C22.6356 23.944 22.721 23.9675 22.8013 24.0022C23.0869 24.1236 23.361 24.2685 23.616 24.4555C26.0652 26.2475 29.2041 27.2358 32.4552 27.2358H37.4288C40.3178 27.2358 42.9506 28.5534 44.4729 30.7616C44.6068 30.9548 44.7189 31.1393 44.8107 31.3127C44.8286 31.3461 44.8362 31.3734 44.8528 31.4068C44.9204 31.543 44.9841 31.6768 45.0237 31.7957C45.0339 31.8291 45.0339 31.8526 45.0428 31.8848C45.0721 31.9938 45.1002 32.1003 45.1027 32.1907C45.104 32.2242 45.09 32.2464 45.0874 32.2774C45.0798 32.3505 45.0747 32.4248 45.0441 32.478C45.0339 32.4954 45.016 32.5127 45.0033 32.5288C44.9701 32.5746 44.9319 32.6192 44.8847 32.6613C44.849 32.6923 44.8031 32.7232 44.7585 32.7542C44.7202 32.7814 44.6807 32.8075 44.6348 32.8335C44.58 32.8644 44.5162 32.8954 44.4512 32.9251C44.3951 32.9511 44.3377 32.9771 44.2765 33.0006C44.2179 33.0242 44.1529 33.0452 44.0878 33.0675C43.9986 33.0973 43.9081 33.127 43.8099 33.153C43.7627 33.1666 43.7105 33.179 43.6595 33.1926C43.5422 33.2211 43.4211 33.2496 43.2936 33.2743C43.2311 33.2867 43.1622 33.2979 43.0959 33.3103C42.9863 33.3288 42.8754 33.3474 42.7606 33.3648C42.3501 33.4205 41.8873 33.4601 41.3684 33.475C40.9081 33.4688 40.4797 33.4626 40.1049 33.4626H27.7163C23.7244 33.4626 21.3415 35.314 21.3415 38.4163C21.3415 39.1012 21.9114 39.6548 22.6165 39.6548C23.3202 39.6548 23.8914 39.1012 23.8914 38.4163C23.8914 37.8033 23.8914 35.9395 27.7163 35.9395H40.0641C40.3446 35.9568 40.889 35.9816 41.5762 35.9568L42.3144 35.9692C42.4177 35.9704 42.5146 35.9704 42.6178 35.9717C43.4848 35.9865 44.3377 35.9952 45.1792 35.9989C45.3743 36.0001 45.5783 36.0051 45.7708 36.0051C45.9837 36.0051 46.1877 36.0014 46.398 36.0001C46.5612 35.9989 46.7244 35.9977 46.8876 35.9964C47.4027 35.9915 47.9076 35.9803 48.4061 35.9655C48.5591 35.9605 48.7146 35.958 48.8663 35.9518C49.4962 35.9296 50.112 35.8998 50.7023 35.8565C50.7227 35.854 50.7392 35.8528 50.7596 35.8503C51.3091 35.8094 51.8382 35.7562 52.3482 35.6942C52.5203 35.6732 52.6823 35.6472 52.848 35.6237C53.2037 35.5729 53.5492 35.5159 53.8807 35.4528C54.0554 35.4193 54.2275 35.3834 54.3958 35.345C54.7145 35.2744 55.0154 35.1927 55.3061 35.106C55.4451 35.0651 55.5891 35.028 55.7205 34.9821C56.1246 34.8447 56.5071 34.6948 56.845 34.5202L64.079 30.2253C64.0854 30.2216 64.0892 30.2167 64.0956 30.2129L67.8325 27.9924C73.0891 25.3087 73.6182 26.0295 74.6751 27.4587C75.027 27.9342 74.9364 28.603 74.4698 28.9894ZM7.31711 52.0391H3.49228V24.7936H7.31711V26.6611V50.8007V52.0391ZM16.2417 21.8783V5.02693C16.2417 4.72723 16.3042 4.44239 16.4049 4.17489L35.9269 21.1427C36.8564 21.9501 38.0242 22.3551 39.1908 22.3551C40.3574 22.3551 41.5227 21.9501 42.4534 21.1427L61.9766 4.17489C62.0761 4.44239 62.1398 4.72723 62.1398 5.02693V28.4742L55.5815 32.3691C53.9496 33.2112 50.6054 33.4638 47.3619 33.5183C47.9395 32.353 47.6806 30.9622 46.5918 29.382C44.594 26.4865 41.1695 24.7589 37.4288 24.7589H32.4552C29.7549 24.7589 27.1617 23.9489 25.1511 22.4764C24.9101 22.3006 24.6589 22.1495 24.4052 22.0108C24.316 21.9625 24.2267 21.9179 24.1362 21.8733C23.9564 21.7854 23.7741 21.7061 23.588 21.6356C23.3967 21.56 23.1991 21.4968 22.9977 21.4374C22.8676 21.4003 22.7363 21.3606 22.6037 21.3309C22.4163 21.2863 22.2251 21.2504 22.0313 21.2207C21.9956 21.2145 21.9599 21.2108 21.9255 21.2058C20.5256 21.004 18.9421 21.1377 17.1814 21.6108C16.9991 21.6591 16.818 21.7111 16.6357 21.7656C16.5031 21.8052 16.3756 21.8337 16.2417 21.8783ZM59.5402 2.50177C59.7047 2.50177 59.8653 2.52034 60.0221 2.55007L40.7539 19.2974C39.8614 20.0714 38.5189 20.0714 37.6277 19.2974L18.3582 2.55007C18.515 2.52034 18.6756 2.50177 18.8414 2.50177H59.5402ZM76.7469 26.0147C74.5106 22.9904 72.245 22.9409 66.5741 25.84L64.6897 26.9596V5.02693C64.6897 3.61264 64.0752 2.33953 63.1011 1.42929C63.096 1.42433 63.0947 1.41814 63.0896 1.41319C63.0323 1.35993 62.9647 1.32278 62.906 1.272C62.725 1.11968 62.544 0.968588 62.3438 0.842268C62.2431 0.777869 62.1334 0.732047 62.0289 0.676318C61.8491 0.578482 61.6745 0.47693 61.4819 0.401386C61.3251 0.338226 61.1594 0.301073 60.9975 0.254012C60.8457 0.210667 60.7004 0.153699 60.5423 0.123977C60.2146 0.0608169 59.8793 0.0249023 59.5402 0.0249023H18.8414C18.5009 0.0249023 18.1656 0.0608169 17.838 0.123977C17.6812 0.153699 17.5358 0.210667 17.3828 0.254012C17.2209 0.301073 17.0552 0.338226 16.8983 0.401386C16.7071 0.47693 16.5312 0.578482 16.3514 0.676318C16.2481 0.732047 16.1385 0.777869 16.0377 0.842268C15.8363 0.968588 15.6553 1.11968 15.4755 1.272C15.4156 1.32278 15.348 1.35993 15.2906 1.41319C15.2855 1.41814 15.2843 1.42433 15.2792 1.42929C14.3051 2.33953 13.6918 3.61264 13.6918 5.02693V22.8727C12.2091 23.539 10.8831 24.2883 9.86701 24.9162V22.3167L0.942383 22.4764V54.5159H9.86701V50.8007H26.4413C29.046 50.8007 31.6699 50.6087 34.2389 50.2273L50.7647 47.7888C51.3665 47.7814 51.9772 47.7108 52.5191 47.5919C54.0414 47.3851 55.4948 46.6779 56.7289 45.5485L76.0546 30.93L76.0852 30.9077C77.5883 29.6965 77.879 27.5478 76.7469 26.0147Z" fill="black"/>
</svg>
