<svg width="372" height="66" viewBox="0 0 191 42" fill="none" xmlns="http://www.w3.org/2000/svg">
<path d="M7.63274 15.6637V21.9662H15.3676C15.9883 21.9662 16.5016 22.1691 16.9074 22.575C17.3371 22.9569 17.552 23.4583 17.552 24.079C17.552 24.6042 17.3371 25.0697 16.9074 25.4755C16.5016 25.8814 15.9883 26.0843 15.3676 26.0843H7.63274V34.4279C7.63274 35.0486 7.40594 35.5738 6.95235 36.0035C6.52264 36.4094 6.00937 36.6123 5.41254 36.6123C4.7441 36.6123 4.19502 36.4094 3.7653 36.0035C3.35946 35.5977 3.15654 35.0725 3.15654 34.4279V13.73C3.15654 13.1093 3.35946 12.596 3.7653 12.1902C4.19502 11.7605 4.72023 11.5456 5.34092 11.5456H16.979C17.5997 11.5456 18.113 11.7485 18.5188 12.1544C18.9486 12.5363 19.1634 13.0377 19.1634 13.6584C19.1634 14.1836 18.9486 14.6491 18.5188 15.055C18.113 15.4608 17.5997 15.6637 16.979 15.6637H7.63274ZM41.0618 11.5098C41.6825 11.5098 42.1838 11.7127 42.5658 12.1186C42.9478 12.5244 43.1388 13.0496 43.1388 13.6942V26.6572C43.1388 28.6387 42.721 30.3934 41.8854 31.9213C41.0499 33.4491 39.8801 34.6428 38.3761 35.5022C36.8721 36.3616 35.1532 36.7914 33.2195 36.7914C31.2858 36.7914 29.555 36.3616 28.0271 35.5022C26.5231 34.6428 25.3533 33.4491 24.5178 31.9213C23.6822 30.3934 23.2644 28.6387 23.2644 26.6572V13.6942C23.2644 13.0735 23.4793 12.5602 23.909 12.1544C24.3387 11.7247 24.8878 11.5098 25.5563 11.5098C26.1292 11.5098 26.6305 11.7247 27.0603 12.1544C27.49 12.5602 27.7048 13.0735 27.7048 13.6942V26.6572C27.7048 27.8032 27.9555 28.8297 28.4568 29.7369C28.9582 30.6202 29.6266 31.3006 30.4622 31.778C31.3216 32.2555 32.2407 32.4942 33.2195 32.4942C34.246 32.4942 35.201 32.2555 36.0843 31.778C36.9914 31.3006 37.7076 30.6202 38.2328 29.7369C38.7819 28.8297 39.0565 27.8032 39.0565 26.6572V13.6942C39.0565 13.0496 39.2355 12.5244 39.5936 12.1186C39.9517 11.7127 40.4411 11.5098 41.0618 11.5098ZM68.1724 33.103C68.4828 33.294 68.7215 33.5446 68.8886 33.855C69.0796 34.1653 69.1751 34.4876 69.1751 34.8218C69.1751 35.2515 69.0319 35.6454 68.7454 36.0035C68.3873 36.4333 67.8382 36.6481 67.0981 36.6481C66.5252 36.6481 66 36.5168 65.5225 36.2542C63.8037 35.2754 62.9442 33.282 62.9442 30.274C62.9442 29.4146 62.6578 28.7342 62.0848 28.2329C61.5357 27.7315 60.736 27.4809 59.6856 27.4809H52.9892V34.4279C52.9892 35.0725 52.8101 35.5977 52.452 36.0035C52.1178 36.4094 51.6642 36.6123 51.0913 36.6123C50.3989 36.6123 49.7902 36.4094 49.265 36.0035C48.7636 35.5738 48.513 35.0486 48.513 34.4279V13.73C48.513 13.1093 48.7159 12.596 49.1217 12.1902C49.5515 11.7605 50.0767 11.5456 50.6974 11.5456H61.0105C62.2519 11.5456 63.4217 11.8798 64.5199 12.5483C65.618 13.2167 66.4894 14.1358 67.1339 15.3056C67.8024 16.4754 68.1366 17.7884 68.1366 19.2447C68.1366 20.4383 67.8143 21.6081 67.1698 22.754C66.5252 23.876 65.6896 24.7713 64.6631 25.4397C66.1671 26.4901 66.9907 27.8986 67.1339 29.6653C67.2056 30.0472 67.2414 30.4173 67.2414 30.7753C67.3369 31.5154 67.4324 32.0526 67.5279 32.3868C67.6233 32.6971 67.8382 32.9359 68.1724 33.103ZM60.8315 23.7925C61.2612 23.7925 61.679 23.5896 62.0848 23.1837C62.4906 22.7779 62.8249 22.2407 63.0875 21.5723C63.3501 20.88 63.4814 20.1399 63.4814 19.3521C63.4814 18.6837 63.3501 18.0749 63.0875 17.5258C62.8249 16.9529 62.4906 16.4993 62.0848 16.165C61.679 15.8308 61.2612 15.6637 60.8315 15.6637H52.9892V23.7925H60.8315ZM101.244 11.4382C101.817 11.4382 102.342 11.665 102.82 12.1186C103.321 12.5483 103.572 13.0974 103.572 13.7658C103.572 13.9807 103.536 14.2194 103.464 14.482L96.4099 35.2515C96.2667 35.6574 96.016 35.9797 95.6579 36.2184C95.2998 36.4571 94.9059 36.5884 94.4762 36.6123C94.0465 36.6123 93.6407 36.4929 93.2587 36.2542C92.8767 36.0155 92.5783 35.6693 92.3635 35.2157L87.2785 23.6492L82.1577 35.2157C81.9429 35.6693 81.6445 36.0155 81.2625 36.2542C80.8805 36.4929 80.4747 36.6123 80.045 36.6123C79.6153 36.5884 79.2213 36.4571 78.8633 36.2184C78.5052 35.9797 78.2545 35.6574 78.1113 35.2515L71.0568 14.482C70.9852 14.2194 70.9493 13.9807 70.9493 13.7658C70.9493 13.0974 71.1881 12.5483 71.6655 12.1186C72.1669 11.665 72.7159 11.4382 73.3128 11.4382C73.7902 11.4382 74.2199 11.5695 74.6019 11.8321C74.9839 12.0708 75.2465 12.405 75.3897 12.8348L80.7254 29.0207L85.3806 17.8481C85.5716 17.4184 85.8461 17.0842 86.2042 16.8454C86.5623 16.5828 86.9681 16.4635 87.4217 16.4873C87.8753 16.4635 88.2692 16.5828 88.6035 16.8454C88.9615 17.0842 89.2361 17.4184 89.4271 17.8481L93.8316 28.9133L99.1315 12.8348C99.2747 12.405 99.5373 12.0708 99.9193 11.8321C100.325 11.5695 100.767 11.4382 101.244 11.4382ZM125.699 33.8192C125.818 34.1295 125.878 34.416 125.878 34.6786C125.878 35.2993 125.675 35.8126 125.269 36.2184C124.863 36.6004 124.397 36.7914 123.872 36.7914C123.443 36.7914 123.049 36.6601 122.691 36.3974C122.356 36.1348 122.094 35.7767 121.903 35.3232L120.041 30.9902H109.369L107.507 35.359C107.34 35.8126 107.078 36.1707 106.719 36.4333C106.385 36.672 106.015 36.7914 105.609 36.7914C104.989 36.7914 104.511 36.6242 104.177 36.29C103.867 35.9558 103.711 35.5022 103.711 34.9293C103.711 34.7144 103.747 34.4876 103.819 34.2489L112.735 12.8348C112.926 12.3573 113.213 11.9873 113.595 11.7247C113.977 11.4621 114.407 11.3546 114.884 11.4024C115.314 11.4024 115.708 11.5337 116.066 11.7963C116.448 12.035 116.722 12.3812 116.889 12.8348L125.699 33.8192ZM118.286 26.8721L114.669 18.4927L111.124 26.8721H118.286ZM148.569 33.103C148.879 33.294 149.118 33.5446 149.285 33.855C149.476 34.1653 149.572 34.4876 149.572 34.8218C149.572 35.2515 149.428 35.6454 149.142 36.0035C148.784 36.4333 148.235 36.6481 147.495 36.6481C146.922 36.6481 146.397 36.5168 145.919 36.2542C144.2 35.2754 143.341 33.282 143.341 30.274C143.341 29.4146 143.054 28.7342 142.481 28.2329C141.932 27.7315 141.133 27.4809 140.082 27.4809H133.386V34.4279C133.386 35.0725 133.207 35.5977 132.849 36.0035C132.514 36.4094 132.061 36.6123 131.488 36.6123C130.796 36.6123 130.187 36.4094 129.662 36.0035C129.16 35.5738 128.91 35.0486 128.91 34.4279V13.73C128.91 13.1093 129.113 12.596 129.518 12.1902C129.948 11.7605 130.473 11.5456 131.094 11.5456H141.407C142.649 11.5456 143.818 11.8798 144.916 12.5483C146.015 13.2167 146.886 14.1358 147.531 15.3056C148.199 16.4754 148.533 17.7884 148.533 19.2447C148.533 20.4383 148.211 21.6081 147.566 22.754C146.922 23.876 146.086 24.7713 145.06 25.4397C146.564 26.4901 147.387 27.8986 147.531 29.6653C147.602 30.0472 147.638 30.4173 147.638 30.7753C147.734 31.5154 147.829 32.0526 147.924 32.3868C148.02 32.6971 148.235 32.9359 148.569 33.103ZM141.228 23.7925C141.658 23.7925 142.076 23.5896 142.481 23.1837C142.887 22.7779 143.222 22.2407 143.484 21.5723C143.747 20.88 143.878 20.1399 143.878 19.3521C143.878 18.6837 143.747 18.0749 143.484 17.5258C143.222 16.9529 142.887 16.4993 142.481 16.165C142.076 15.8308 141.658 15.6637 141.228 15.6637H133.386V23.7925H141.228Z" fill="#413A41"/>
<ellipse cx="177.994" cy="10.0846" rx="3.74281" ry="6.22053" transform="rotate(90 177.994 10.0846)" fill="#413A41"/>
<ellipse cx="184.214" cy="23.8641" rx="3.74281" ry="6.22053" transform="rotate(90 184.214 23.8641)" fill="#413A41"/>
<ellipse cx="177.994" cy="37.6437" rx="3.74281" ry="6.22053" transform="rotate(90 177.994 37.6437)" fill="#413A41"/>
<path d="M164.348 11.5462C166.592 11.5462 168.514 12.1072 170.114 13.2293C171.737 14.3274 172.966 15.8314 173.802 17.7413C174.661 19.6272 175.091 21.74 175.091 24.0796C175.091 26.4191 174.661 28.5438 173.802 30.4537C172.966 32.3396 171.737 33.8436 170.114 34.9657C168.514 36.0638 166.592 36.6129 164.348 36.6129H155.79C155.169 36.6129 154.644 36.41 154.214 36.0042C153.808 35.5744 153.605 35.0492 153.605 34.4285V13.7306C153.605 13.1099 153.808 12.5966 154.214 12.1908C154.644 11.7611 155.169 11.5462 155.79 11.5462H164.348ZM163.99 32.4948C166.139 32.4948 167.75 31.707 168.825 30.1314C169.899 28.5319 170.436 26.5146 170.436 24.0796C170.436 21.6445 169.887 19.6392 168.789 18.0636C167.714 16.4641 166.115 15.6643 163.99 15.6643H158.082V32.4948H163.99Z" fill="#413A41"/>
</svg>
