<svg width="61" height="61" viewBox="0 0 61 61" fill="none" xmlns="http://www.w3.org/2000/svg">
<path d="M48.4648 0.420898H13.4648C6.56234 0.420898 0.964844 6.0184 0.964844 12.9209V47.9209C0.964844 54.8234 6.56234 60.4209 13.4648 60.4209H48.4648C55.3698 60.4209 60.9648 54.8234 60.9648 47.9209V12.9209C60.9648 6.0184 55.3698 0.420898 48.4648 0.420898ZM37.2998 49.3959C36.2873 49.5909 35.9648 48.9684 35.9648 48.4359V42.9484C35.9648 41.0809 35.3098 39.8659 34.5898 39.2459C39.0448 38.7509 43.7248 37.0584 43.7248 29.3784C43.7248 27.1934 42.9448 25.4084 41.6673 24.0109C41.8723 23.5059 42.5573 21.4709 41.4698 18.7184C41.4698 18.7184 39.7923 18.1809 35.9748 20.7684C34.3748 20.3184 32.6648 20.1009 30.9648 20.0909C29.2648 20.0984 27.5548 20.3184 25.9573 20.7634C22.1373 18.1759 20.4573 18.7134 20.4573 18.7134C19.3723 21.4684 20.0573 23.5009 20.2648 24.0084C18.9848 25.4084 18.2048 27.1909 18.2048 29.3759C18.2048 37.0359 22.8723 38.7534 27.3173 39.2609C26.7448 39.7609 26.2273 40.6409 26.0473 41.9359C24.9048 42.4459 22.0123 43.3284 20.2273 40.2709C20.2273 40.2709 19.1698 38.3509 17.1598 38.2084C17.1598 38.2084 15.2098 38.1834 17.0223 39.4259C17.0223 39.4259 18.3348 40.0409 19.2448 42.3509C19.2448 42.3509 20.4023 45.9209 25.9648 44.7109V48.4334C25.9648 48.9609 25.6423 49.5809 24.6448 49.3959C16.6948 46.7534 10.9648 39.2559 10.9648 30.4209C10.9648 19.3734 19.9198 10.4209 30.9648 10.4209C42.0098 10.4209 50.9648 19.3734 50.9648 30.4209C50.9648 39.2534 45.2423 46.7484 37.2998 49.3959Z" fill="white"/>
</svg>
