<svg width="61" height="61" viewBox="0 0 61 61" fill="none" xmlns="http://www.w3.org/2000/svg">
<path d="M48.3438 0.420898H13.3438C6.44125 0.420898 0.84375 6.0184 0.84375 12.9209V47.9209C0.84375 54.8234 6.44125 60.4209 13.3438 60.4209H48.3438C55.2487 60.4209 60.8438 54.8234 60.8438 47.9209V12.9209C60.8438 6.0184 55.2487 0.420898 48.3438 0.420898ZM20.8438 47.9209H13.3438V20.4209H20.8438V47.9209ZM17.0938 17.2509C14.6788 17.2509 12.7188 15.2759 12.7188 12.8409C12.7188 10.4059 14.6788 8.4309 17.0938 8.4309C19.5088 8.4309 21.4688 10.4059 21.4688 12.8409C21.4688 15.2759 19.5112 17.2509 17.0938 17.2509ZM50.8438 47.9209H43.3438V33.9109C43.3438 25.4909 33.3438 26.1284 33.3438 33.9109V47.9209H25.8438V20.4209H33.3438V24.8334C36.8338 18.3684 50.8438 17.8909 50.8438 31.0234V47.9209Z" fill="white"/>
</svg>
