<svg width="64" height="60" viewBox="0 0 64 60" fill="none" xmlns="http://www.w3.org/2000/svg">
<path fill-rule="evenodd" clip-rule="evenodd" d="M7.55817 12.4869C5.14052 12.8997 2.89978 13.4304 0.835938 14.079V59.1887H8.44267V19.386C10.3886 18.7964 12.1281 18.5015 13.6612 18.5015C16.6096 18.5015 18.6145 19.5629 19.6759 21.6857C20.7373 23.8085 21.268 27.1697 21.268 31.7691V48.1109H28.8747V31.1499C28.8747 29.0271 28.7568 27.1107 28.5209 25.4007C28.285 23.6906 27.9312 22.1575 27.4595 20.8012C28.4619 20.0936 29.5233 19.5334 30.6437 19.1207C31.8231 18.7079 32.9729 18.5015 34.0933 18.5015C37.0416 18.5015 39.0465 19.5629 40.1079 21.6857C41.0645 23.5989 41.59 26.5178 41.6845 30.4425H49.0661L49.1308 29.7304L49.2891 29.7448C49.2097 26.6475 48.8618 24.0202 48.2453 21.8626C47.5377 19.3271 46.5648 17.3222 45.3265 15.848C44.0882 14.3738 42.5845 13.3419 40.8155 12.7522C39.1055 12.1036 37.189 11.7793 35.0662 11.7793C32.9434 11.7793 30.9975 12.1036 29.2285 12.7522C27.4595 13.4009 25.8084 14.2264 24.2753 15.2289C22.978 13.9906 21.4744 13.1061 19.7643 12.5754C18.1132 12.0446 16.2558 11.7793 14.1919 11.7793C12.1871 11.7793 9.97581 12.0152 7.55817 12.4869Z" fill="#056BBD"/>
<path fill-rule="evenodd" clip-rule="evenodd" d="M63.996 0.8125H0.814453V7.72268H63.996V0.8125Z" fill="#14A643"/>
<path fill-rule="evenodd" clip-rule="evenodd" d="M63.9984 51.9551H21.2891V58.8653H63.9984V51.9551Z" fill="#14A643"/>
<path fill-rule="evenodd" clip-rule="evenodd" d="M63.9973 16.9894C62.8956 16.7397 61.816 16.5815 60.7584 16.515C59.3694 16.4277 57.8337 16.4785 56.1513 16.6675C53.3473 16.9825 50.9688 17.6554 49.0159 18.686C47.0985 19.6721 45.5554 20.9204 44.3865 22.4308C43.2131 23.9012 42.4072 25.5737 41.9688 27.4483C41.5304 29.3229 41.4259 31.2816 41.6554 33.3246C41.8894 35.4076 42.4081 37.3166 43.2114 39.0517C44.0549 40.7823 45.2118 42.2342 46.6822 43.4076C48.1526 44.581 49.952 45.4335 52.0804 45.9651C54.2489 46.4922 56.7752 46.5938 59.6593 46.2698C61.2879 46.0868 62.7339 45.8305 63.9973 45.5008V38.9359C63.7876 38.9934 63.574 39.0483 63.3565 39.1007C62.1327 39.4004 60.94 39.6155 59.7783 39.746C56.2532 40.142 53.6664 39.6822 52.0178 38.3666C50.4092 37.0465 49.4587 35.0845 49.1662 32.4808C49.0312 31.2791 49.0654 30.1395 49.2689 29.062C49.4723 27.9845 49.8941 27.0447 50.5341 26.2427C51.1696 25.4006 52.0457 24.714 53.1624 24.1829C54.3146 23.6073 55.772 23.2205 57.5345 23.0225C59.0567 22.8515 60.312 22.8322 61.3004 22.9645C62.2884 23.0492 63.1874 23.1817 63.9973 23.362V16.9894Z" fill="#F3CC2D"/>
<path fill-rule="evenodd" clip-rule="evenodd" d="M47.4821 19.5713C46.2568 20.3855 45.2245 21.335 44.3852 22.4196C43.2118 23.89 42.4059 25.5625 41.9674 27.4371C41.8241 28.0499 41.7165 28.6718 41.6445 29.3026C41.6621 29.6684 41.6755 30.0439 41.6848 30.4291H49.0664L49.1311 29.717L49.1639 29.72C49.1913 29.4945 49.2258 29.2717 49.2674 29.0514C49.157 26.2478 48.8165 23.847 48.2457 21.8492C48.0185 21.0352 47.764 20.2759 47.4821 19.5713Z" fill="#14A643"/>
</svg>
