<svg width="34" height="28" viewBox="0 0 34 28" fill="none" xmlns="http://www.w3.org/2000/svg">
<path d="M2.22771 0.139404H31.7626C32.9015 0.139404 33.8126 1.05051 33.8126 2.18938V25.2706C33.8126 26.4095 32.9015 27.3965 31.7626 27.3965H2.22771C1.08884 27.3965 0.177734 26.4095 0.177734 25.2706V2.18938C0.177734 1.05051 1.08884 0.139404 2.22771 0.139404ZM11.5665 14.717L2.53142 25.878H31.4589L22.4997 14.717L22.1201 15.0967C20.6775 16.5392 18.8553 17.2226 17.0331 17.2226C15.135 17.2226 13.3128 16.5392 11.9461 15.0967L11.5665 14.717ZM1.69624 24.5114L10.5036 13.6541L1.69624 4.92269V24.5114ZM23.5627 13.6541L32.2941 24.5114V4.92269L23.5627 13.6541ZM1.69624 2.72086L13.0091 14.0337C14.072 15.1726 15.5905 15.7041 17.0331 15.7041C18.4757 15.7041 19.9183 15.1726 20.9812 14.0337L32.2941 2.72086V2.18938C32.2941 1.88568 32.0663 1.65791 31.7626 1.65791H2.22771C1.92401 1.65791 1.69624 1.88568 1.69624 2.18938V2.72086Z" fill="black"/>
</svg>
