<svg xmlns:dc="http://purl.org/dc/elements/1.1/" xmlns:cc="http://creativecommons.org/ns#" xmlns:rdf="http://www.w3.org/1999/02/22-rdf-syntax-ns#" xmlns:svg="http://www.w3.org/2000/svg" xmlns="http://www.w3.org/2000/svg" xmlns:sodipodi="http://sodipodi.sourceforge.net/DTD/sodipodi-0.dtd" xmlns:inkscape="http://www.inkscape.org/namespaces/inkscape" version="1.1" x="0px" y="0px" viewBox="0 0 128 160" enable-background="new 0 0 128 128" xml:space="preserve"><path d="M 34 2.8007812 C 25 2.8007812 17.800781 10 17.800781 19 L 17.800781 109 C 17.800781 118 25.1 125.19922 34 125.19922 L 94 125.19922 C 103 125.19922 110.19922 117.9 110.19922 109 L 110.19922 34 L 110.19922 33.900391 L 110.19922 33.599609 L 110.19922 33.5 C 110.09922 33.4 110.1 33.199609 110 33.099609 L 80 3.0996094 C 79.9 2.9996094 79.799609 2.9003906 79.599609 2.9003906 L 79.5 2.9003906 C 79.4 2.9003906 79.299219 2.8007813 79.199219 2.8007812 L 79.099609 2.8007812 L 34 2.8007812 z M 34 5.1992188 L 77.800781 5.1992188 L 77.800781 19 C 77.800781 28 85.1 35.199219 94 35.199219 L 107.80078 35.199219 L 107.80078 109 C 107.80078 116.6 101.6 122.80078 94 122.80078 L 34 122.80078 C 26.4 122.80078 20.199219 116.6 20.199219 109 L 20.199219 19 C 20.199219 11.4 26.4 5.1992187 34 5.1992188 z M 39.300781 49.400391 C 37.300781 49.400391 36.400391 50.3 36.400391 52.5 L 36.400391 70.400391 C 36.400391 71.200391 36.899219 71.599609 37.699219 71.599609 C 38.499219 71.599609 39 71.200391 39 70.400391 L 39 62.400391 L 45.400391 62.400391 C 49.900391 62.400391 52.5 59.899219 52.5 55.699219 C 52.6 51.699219 50.099609 49.400391 45.599609 49.400391 L 39.300781 49.400391 z M 59.099609 49.400391 C 57.099609 49.400391 56.199219 50.3 56.199219 52.5 L 56.199219 68.400391 C 56.199219 70.500391 57.099609 71.400391 59.099609 71.400391 L 64.099609 71.400391 C 70.299609 71.400391 74 67.199219 74 60.199219 C 74 53.399219 70.299609 49.400391 64.099609 49.400391 L 59.099609 49.400391 z M 80.900391 49.400391 C 78.900391 49.400391 78 50.200391 78 52.400391 L 78 70.300781 C 78 71.100781 78.600781 71.5 79.300781 71.5 C 80.100781 71.5 80.699219 71.100781 80.699219 70.300781 L 80.699219 61.199219 L 90.5 61.199219 C 91.2 61.199219 91.599609 60.7 91.599609 60 C 91.599609 59.3 91.2 58.800781 90.5 58.800781 L 80.699219 58.800781 L 80.699219 52.699219 C 80.699219 52.099219 80.999609 51.800781 81.599609 51.800781 L 92.099609 51.800781 C 92.899609 51.800781 93.300781 51.299609 93.300781 50.599609 C 93.200781 49.899609 92.799609 49.400391 92.099609 49.400391 L 80.900391 49.400391 z M 40 51.800781 L 45.400391 51.800781 C 48.200391 51.800781 49.800781 53.200781 49.800781 55.800781 C 49.800781 58.500781 48.300391 60 45.400391 60 L 39.099609 60 L 39.099609 52.800781 C 39.099609 52.200781 39.4 51.800781 40 51.800781 z M 59.800781 51.900391 L 64 51.900391 C 68.7 51.900391 71.199219 54.900781 71.199219 60.300781 C 71.199219 65.700781 68.5 69 64 69 L 59.800781 69 C 59.200781 69 58.900391 68.7 58.900391 68 L 58.900391 52.800781 C 58.900391 52.200781 59.300781 51.900391 59.800781 51.900391 z "/><text x="0" y="143" fill="#000000" font-size="5px" font-weight="bold" font-family="'Helvetica Neue', Helvetica, Arial-Unicode, Arial, Sans-serif">Created by Kokota</text><text x="0" y="148" fill="#000000" font-size="5px" font-weight="bold" font-family="'Helvetica Neue', Helvetica, Arial-Unicode, Arial, Sans-serif">from the Noun Project</text></svg>