<svg width="61" height="61" viewBox="0 0 61 61" fill="none" xmlns="http://www.w3.org/2000/svg">
<mask id="path-1-inside-1" fill="white">
<path d="M56.0763 22.1205H54.2178C53.7787 22.1205 53.3938 21.8328 53.2336 21.4241C53.0959 21.0728 52.9441 20.7305 52.7947 20.3914C52.6312 20.0206 52.716 19.5897 53.0026 19.3032L54.366 17.9397C56.0129 16.2928 56.0129 13.6323 54.366 12.0487L48.5383 6.22108C46.8914 4.57413 44.2309 4.57413 42.6473 6.22108L41.32 7.54841C41.0156 7.85277 40.552 7.9252 40.1594 7.74873C39.8333 7.60217 39.504 7.46711 39.1665 7.34355C38.7543 7.19263 38.4666 6.80833 38.4666 6.36932V4.51079C38.4666 2.2304 36.5663 0.330078 34.2859 0.330078H26.0512C23.7708 0.330078 21.8705 2.2304 21.8705 4.51079V6.4211C21.8705 6.83487 21.6153 7.20526 21.231 7.35849C20.861 7.50597 20.5012 7.65345 20.1451 7.80094C19.7707 7.95598 19.3397 7.87105 19.0532 7.58452L17.6897 6.22108C16.8663 5.46095 15.8528 5.01754 14.7126 5.01754C13.5724 5.01754 12.5589 5.46095 11.7354 6.22108L5.97108 12.0487C5.21095 12.8089 4.76754 13.8857 4.76754 15.0259C4.76754 16.1661 5.21095 17.1796 5.97108 18.0031L7.29841 19.3304C7.60277 19.6348 7.6752 20.0984 7.49873 20.491C7.35217 20.8171 7.21711 21.1464 7.09355 21.4839C6.94263 21.8961 6.55833 22.1838 6.11932 22.1838H4.26079C1.9804 22.1838 0.0800781 24.0841 0.0800781 26.3645V34.5359C0.0800781 36.8163 1.9804 38.7166 4.26079 38.7166H6.1711C6.58487 38.7166 6.95526 38.9717 7.10849 39.3561C7.25597 39.726 7.40345 40.0859 7.55094 40.442C7.70598 40.8164 7.62105 41.2474 7.33452 41.5339L5.97108 42.8973C5.21095 43.6574 4.76754 44.7343 4.76754 45.8745C4.76754 47.0147 5.21095 48.0282 5.97108 48.8517L11.7354 54.6793C13.3823 56.3263 16.0428 56.3263 17.6264 54.6793L18.9537 53.352C19.2581 53.0476 19.7217 52.9752 20.1143 53.1517C20.4404 53.2982 20.7697 53.4333 21.1072 53.5569C21.5195 53.7078 21.8071 54.0921 21.8071 54.5311V56.3896C21.8071 58.67 23.7074 60.5703 25.9878 60.5703H34.1592C36.4396 60.5703 38.3399 58.67 38.3399 56.3896V54.4793C38.3399 54.0655 38.5951 53.6951 38.9794 53.5419C39.3494 53.3944 39.7092 53.247 40.0653 53.0995C40.4397 52.9444 40.8707 53.0294 41.1572 53.3159L42.5206 54.6793C44.1676 56.3263 46.828 56.3263 48.4116 54.6793L54.176 48.915C54.9994 48.1549 55.3795 47.078 55.3795 45.9378C55.3795 44.7976 54.9361 43.7841 54.176 42.9607L52.8486 41.6333C52.5443 41.329 52.4718 40.8653 52.6483 40.4727C52.7949 40.1467 52.9299 39.8174 53.0535 39.4799C53.2044 39.0676 53.5887 38.78 54.0277 38.78H55.8862C58.1666 38.78 60.067 36.8796 60.067 34.5992V26.3012C60.257 23.9574 58.3567 22.1205 56.0763 22.1205ZM55.6329 34.0925H51.7689C50.7554 34.0925 49.8052 34.7893 49.5518 35.8028C49.1084 37.4497 48.475 38.97 47.6515 40.3636C47.1448 41.2504 47.2714 42.3906 48.0316 43.1507L50.0483 45.1674C50.4388 45.5579 50.4388 46.1911 50.0483 46.5816L46.2683 50.3616C45.8777 50.7521 45.2446 50.7521 44.8541 50.3616L42.8374 48.3449C42.0772 47.5848 41.0004 47.4581 40.0502 47.9649C38.6566 48.7883 37.1364 49.4218 35.4894 49.8652C34.4759 50.1185 33.7792 51.0687 33.7792 52.0822V54.9462C33.7792 55.4985 33.3314 55.9462 32.7792 55.9462H27.4946C26.9423 55.9462 26.4946 55.4985 26.4946 54.9462V52.0822C26.4946 51.0687 25.7978 50.1185 24.7843 49.8652C23.1373 49.4218 21.6171 48.7883 20.2235 47.9649C19.3367 47.4581 18.1965 47.5848 17.4364 48.3449L15.4197 50.3616C15.0292 50.7521 14.396 50.7521 14.0055 50.3616L10.2255 46.5816C9.83493 46.1911 9.83493 45.5579 10.2255 45.1674L12.2422 43.1507C13.0023 42.3906 13.129 41.3137 12.6222 40.3636C11.7987 38.97 11.1653 37.4497 10.7219 35.8028C10.4685 34.7893 9.51835 34.0925 8.50485 34.0925H5.7042C5.15192 34.0925 4.7042 33.6448 4.7042 33.0925V27.7446C4.7042 27.1923 5.15191 26.7446 5.7042 26.7446H8.56819C9.5817 26.7446 10.5319 26.0478 10.7852 25.0343C11.2286 23.4507 11.8621 21.8671 12.6856 20.4735C13.1923 19.5867 13.0656 18.4465 12.3055 17.6864L10.2888 15.6697C9.89828 15.2792 9.89828 14.646 10.2888 14.2555L14.0688 10.4755C14.4593 10.0849 15.0925 10.0849 15.483 10.4755L17.4997 12.4921C18.2598 13.2523 19.3367 13.379 20.2869 12.8722C21.6804 12.0487 23.2007 11.4153 24.8476 10.9719C25.8611 10.7185 26.5579 9.76835 26.5579 8.75485V5.9542C26.5579 5.40191 27.0056 4.9542 27.5579 4.9542H32.9058C33.4581 4.9542 33.9058 5.40191 33.9058 5.9542V8.81819C33.9058 9.8317 34.6026 10.7819 35.6161 11.0352C37.2631 11.4786 38.7833 12.1121 40.1769 12.9356C41.0637 13.4423 42.2039 13.3156 42.964 12.5555L44.9807 10.5388C45.3713 10.1483 46.0044 10.1483 46.395 10.5388L50.175 14.3188C50.5655 14.7093 50.5655 15.3425 50.175 15.733L48.1583 17.7497C47.3981 18.5098 47.2714 19.5867 47.7782 20.5369C48.6017 21.9304 49.2351 23.4507 49.6785 25.0976C49.9319 26.1111 50.8821 26.8079 51.8956 26.8079H54.7596C55.3118 26.8079 55.7596 27.2556 55.7596 27.8079V33.9658C55.7596 34.0358 55.7028 34.0925 55.6329 34.0925V34.0925Z"/>
</mask>
<path d="M56.0763 22.1205H54.2178C53.7787 22.1205 53.3938 21.8328 53.2336 21.4241C53.0959 21.0728 52.9441 20.7305 52.7947 20.3914C52.6312 20.0206 52.716 19.5897 53.0026 19.3032L54.366 17.9397C56.0129 16.2928 56.0129 13.6323 54.366 12.0487L48.5383 6.22108C46.8914 4.57413 44.2309 4.57413 42.6473 6.22108L41.32 7.54841C41.0156 7.85277 40.552 7.9252 40.1594 7.74873C39.8333 7.60217 39.504 7.46711 39.1665 7.34355C38.7543 7.19263 38.4666 6.80833 38.4666 6.36932V4.51079C38.4666 2.2304 36.5663 0.330078 34.2859 0.330078H26.0512C23.7708 0.330078 21.8705 2.2304 21.8705 4.51079V6.4211C21.8705 6.83487 21.6153 7.20526 21.231 7.35849C20.861 7.50597 20.5012 7.65345 20.1451 7.80094C19.7707 7.95598 19.3397 7.87105 19.0532 7.58452L17.6897 6.22108C16.8663 5.46095 15.8528 5.01754 14.7126 5.01754C13.5724 5.01754 12.5589 5.46095 11.7354 6.22108L5.97108 12.0487C5.21095 12.8089 4.76754 13.8857 4.76754 15.0259C4.76754 16.1661 5.21095 17.1796 5.97108 18.0031L7.29841 19.3304C7.60277 19.6348 7.6752 20.0984 7.49873 20.491C7.35217 20.8171 7.21711 21.1464 7.09355 21.4839C6.94263 21.8961 6.55833 22.1838 6.11932 22.1838H4.26079C1.9804 22.1838 0.0800781 24.0841 0.0800781 26.3645V34.5359C0.0800781 36.8163 1.9804 38.7166 4.26079 38.7166H6.1711C6.58487 38.7166 6.95526 38.9717 7.10849 39.3561C7.25597 39.726 7.40345 40.0859 7.55094 40.442C7.70598 40.8164 7.62105 41.2474 7.33452 41.5339L5.97108 42.8973C5.21095 43.6574 4.76754 44.7343 4.76754 45.8745C4.76754 47.0147 5.21095 48.0282 5.97108 48.8517L11.7354 54.6793C13.3823 56.3263 16.0428 56.3263 17.6264 54.6793L18.9537 53.352C19.2581 53.0476 19.7217 52.9752 20.1143 53.1517C20.4404 53.2982 20.7697 53.4333 21.1072 53.5569C21.5195 53.7078 21.8071 54.0921 21.8071 54.5311V56.3896C21.8071 58.67 23.7074 60.5703 25.9878 60.5703H34.1592C36.4396 60.5703 38.3399 58.67 38.3399 56.3896V54.4793C38.3399 54.0655 38.5951 53.6951 38.9794 53.5419C39.3494 53.3944 39.7092 53.247 40.0653 53.0995C40.4397 52.9444 40.8707 53.0294 41.1572 53.3159L42.5206 54.6793C44.1676 56.3263 46.828 56.3263 48.4116 54.6793L54.176 48.915C54.9994 48.1549 55.3795 47.078 55.3795 45.9378C55.3795 44.7976 54.9361 43.7841 54.176 42.9607L52.8486 41.6333C52.5443 41.329 52.4718 40.8653 52.6483 40.4727C52.7949 40.1467 52.9299 39.8174 53.0535 39.4799C53.2044 39.0676 53.5887 38.78 54.0277 38.78H55.8862C58.1666 38.78 60.067 36.8796 60.067 34.5992V26.3012C60.257 23.9574 58.3567 22.1205 56.0763 22.1205ZM55.6329 34.0925H51.7689C50.7554 34.0925 49.8052 34.7893 49.5518 35.8028C49.1084 37.4497 48.475 38.97 47.6515 40.3636C47.1448 41.2504 47.2714 42.3906 48.0316 43.1507L50.0483 45.1674C50.4388 45.5579 50.4388 46.1911 50.0483 46.5816L46.2683 50.3616C45.8777 50.7521 45.2446 50.7521 44.8541 50.3616L42.8374 48.3449C42.0772 47.5848 41.0004 47.4581 40.0502 47.9649C38.6566 48.7883 37.1364 49.4218 35.4894 49.8652C34.4759 50.1185 33.7792 51.0687 33.7792 52.0822V54.9462C33.7792 55.4985 33.3314 55.9462 32.7792 55.9462H27.4946C26.9423 55.9462 26.4946 55.4985 26.4946 54.9462V52.0822C26.4946 51.0687 25.7978 50.1185 24.7843 49.8652C23.1373 49.4218 21.6171 48.7883 20.2235 47.9649C19.3367 47.4581 18.1965 47.5848 17.4364 48.3449L15.4197 50.3616C15.0292 50.7521 14.396 50.7521 14.0055 50.3616L10.2255 46.5816C9.83493 46.1911 9.83493 45.5579 10.2255 45.1674L12.2422 43.1507C13.0023 42.3906 13.129 41.3137 12.6222 40.3636C11.7987 38.97 11.1653 37.4497 10.7219 35.8028C10.4685 34.7893 9.51835 34.0925 8.50485 34.0925H5.7042C5.15192 34.0925 4.7042 33.6448 4.7042 33.0925V27.7446C4.7042 27.1923 5.15191 26.7446 5.7042 26.7446H8.56819C9.5817 26.7446 10.5319 26.0478 10.7852 25.0343C11.2286 23.4507 11.8621 21.8671 12.6856 20.4735C13.1923 19.5867 13.0656 18.4465 12.3055 17.6864L10.2888 15.6697C9.89828 15.2792 9.89828 14.646 10.2888 14.2555L14.0688 10.4755C14.4593 10.0849 15.0925 10.0849 15.483 10.4755L17.4997 12.4921C18.2598 13.2523 19.3367 13.379 20.2869 12.8722C21.6804 12.0487 23.2007 11.4153 24.8476 10.9719C25.8611 10.7185 26.5579 9.76835 26.5579 8.75485V5.9542C26.5579 5.40191 27.0056 4.9542 27.5579 4.9542H32.9058C33.4581 4.9542 33.9058 5.40191 33.9058 5.9542V8.81819C33.9058 9.8317 34.6026 10.7819 35.6161 11.0352C37.2631 11.4786 38.7833 12.1121 40.1769 12.9356C41.0637 13.4423 42.2039 13.3156 42.964 12.5555L44.9807 10.5388C45.3713 10.1483 46.0044 10.1483 46.395 10.5388L50.175 14.3188C50.5655 14.7093 50.5655 15.3425 50.175 15.733L48.1583 17.7497C47.3981 18.5098 47.2714 19.5867 47.7782 20.5369C48.6017 21.9304 49.2351 23.4507 49.6785 25.0976C49.9319 26.1111 50.8821 26.8079 51.8956 26.8079H54.7596C55.3118 26.8079 55.7596 27.2556 55.7596 27.8079V33.9658C55.7596 34.0358 55.7028 34.0925 55.6329 34.0925V34.0925Z" fill="black" stroke="#E3EFFA" stroke-width="2" mask="url(#path-1-inside-1)"/>
<path d="M26.0665 24.7507L26.0664 24.7507L26.0645 24.762C25.9792 25.2741 25.4969 25.6745 24.9741 25.6745H22.9471C22.6479 25.6745 22.3468 25.5472 22.1277 25.2843C21.896 25.0063 21.8163 24.7032 21.8585 24.4082C22.0993 22.7222 22.852 20.9096 24.2071 19.5246C25.5525 18.1497 27.5133 17.1729 30.2317 17.1729C33.5436 17.1729 36.2744 18.7912 37.6391 21.5206C38.8873 24.017 38.6467 26.9832 37.0499 29.1724C36.0227 30.5617 34.9371 31.3475 34.1278 31.9078L34.1277 31.9077L34.1218 31.912C34.1098 31.9206 34.0978 31.9291 34.0859 31.9376C33.6792 32.2279 33.3192 32.4849 33.0744 32.8623C32.815 33.2623 32.7124 33.7458 32.6478 34.4251L32.6477 34.4251L32.647 34.4342C32.604 34.9926 32.1287 35.4295 31.5619 35.4295H29.5982C29.313 35.4295 29.0543 35.3119 28.8116 35.0692C28.5811 34.8387 28.4731 34.5455 28.5096 34.2899L28.5115 34.2764L28.5127 34.2629C28.6655 32.5211 29.089 31.3704 29.6511 30.52C30.216 29.6655 30.9453 29.0755 31.7863 28.4837L31.7989 28.4748L31.8109 28.4652C31.9083 28.3873 32.0063 28.3109 32.105 28.2341C32.6234 27.8303 33.1608 27.4117 33.7318 26.6694L33.7395 26.6594L33.7466 26.6491C34.4256 25.6684 34.4913 24.4645 33.9787 23.3659L33.9788 23.3658L33.9728 23.3538C33.5864 22.581 32.5428 21.3671 30.295 21.3671C28.8525 21.3671 27.8459 21.8181 27.1677 22.5057C26.5021 23.1806 26.2034 24.0323 26.0665 24.7507Z" fill="black" stroke="#E3EFFA"/>
<path d="M33.1521 41.0599C33.1521 42.498 31.9863 43.6638 30.5482 43.6638C29.1101 43.6638 27.9443 42.498 27.9443 41.0599C27.9443 39.6218 29.1101 38.4561 30.5482 38.4561C31.9863 38.4561 33.1521 39.6218 33.1521 41.0599Z" fill="black" stroke="#E3EFFA"/>
</svg>
