<svg width="61" height="59" viewBox="0 0 61 59" fill="none" xmlns="http://www.w3.org/2000/svg">
<path d="M54.6023 0.893011L54.6027 0.892611C54.9861 0.520681 55.6111 0.518105 56.0038 0.893378C56.0041 0.893664 56.0044 0.893951 56.0047 0.894238L59.7185 4.49739C59.9056 4.67888 60.0059 4.91854 60.0059 5.16408C60.0059 5.41046 59.9052 5.64788 59.7221 5.82091L59.7221 5.82088L59.7181 5.8247L57.5446 7.9399L57.268 8.20906L57.545 8.4778L58.1972 9.11054C58.8404 9.73457 58.8404 10.7428 58.1972 11.3668L50.0732 19.2486L49.9593 19.3591V19.5178V44.1593V44.5343H50.3343H57.6226C57.843 44.5343 58.002 44.5856 58.1212 44.6606C58.2418 44.7365 58.3432 44.8502 58.4262 45.0061C58.598 45.3289 58.6709 45.7958 58.6709 46.3211C58.6709 46.8513 58.5955 47.2014 58.4484 47.4146C58.3233 47.5959 58.1026 47.7388 57.6226 47.7388H50.3336H49.9586V48.1138V55.1854C49.9586 55.6165 49.8044 55.8354 49.5785 55.9716C49.3171 56.1293 48.9101 56.2047 48.3652 56.2047C47.8257 56.2047 47.375 56.1302 47.0712 55.9638C46.9252 55.8839 46.8203 55.7866 46.7502 55.6707C46.6805 55.5554 46.6326 55.4007 46.6326 55.1854V48.1138V47.7388H46.2576H20.8589H20.7069L20.5978 47.8446L16.8822 51.4494L16.8822 51.4493L16.8774 51.4541C16.7502 51.5821 16.5986 51.6839 16.4249 51.7684C16.424 51.7689 16.4232 51.7693 16.4223 51.7697L3.07014 57.9865C2.82923 58.0913 2.58319 58.1444 2.34122 58.1444C2.15408 58.1444 2.07416 58.1034 1.9998 58.0452C1.95118 58.0071 1.8996 57.9563 1.82678 57.8793C1.81132 57.8629 1.79481 57.8453 1.77734 57.8266C1.71754 57.7627 1.64639 57.6867 1.56672 57.6081L1.56442 57.6059C1.27592 57.326 1.01814 57.0062 0.874314 56.6878C0.732954 56.3749 0.715254 56.0989 0.837101 55.8519L7.19527 43.0011L7.19964 42.9923L7.20355 42.9832C7.28445 42.7954 7.41017 42.6131 7.57204 42.4552L7.70418 42.3339L7.70428 42.334L7.712 42.3265L11.2847 38.8532L11.3983 38.7428V38.5844V13.9293V13.5543H11.0233H3.73438C3.50342 13.5543 3.3739 13.5062 3.2976 13.4544C3.22379 13.4044 3.16344 13.3265 3.11648 13.195C3.06746 13.0577 3.03908 12.8781 3.02529 12.6496C3.01299 12.4458 3.01314 12.2245 3.01332 11.9805C3.01334 11.9515 3.01336 11.9221 3.01336 11.8924C3.01336 11.8633 3.01334 11.8347 3.01332 11.8064C3.01316 11.5628 3.01301 11.3487 3.02531 11.1551C3.03906 10.9384 3.06715 10.7776 3.11313 10.6591C3.15584 10.5492 3.21013 10.4847 3.28186 10.4413C3.36011 10.3938 3.4952 10.3498 3.73438 10.3498H11.0226H11.3976V9.97477V2.90316C11.3976 2.67465 11.4415 2.5502 11.4865 2.48012C11.5279 2.4155 11.5918 2.36298 11.7079 2.32131C11.8317 2.27685 11.9991 2.25075 12.2234 2.23853C12.4127 2.22822 12.6202 2.22851 12.8547 2.22885C12.8973 2.22891 12.9408 2.22897 12.9853 2.22897C13.0188 2.22897 13.0518 2.22895 13.0844 2.22893C13.6315 2.2286 14.0509 2.22834 14.3494 2.32509C14.4926 2.37151 14.5746 2.43137 14.6249 2.49985C14.6753 2.56831 14.7237 2.68587 14.7237 2.90316V9.97477V10.3498H15.0987H40.5121H40.6641L40.7732 10.2439L48.8905 2.3686L48.8931 2.36608C49.1993 2.06324 49.6198 1.8948 50.0693 1.8948C50.5126 1.8948 50.9391 2.06355 51.2457 2.36632L51.2481 2.36859L51.9003 3.00133L52.161 3.25428L52.4221 3.00173L54.6023 0.893011ZM15.0987 13.5543H14.7237V13.9293V34.6299V35.5162L15.3598 34.899L36.6965 14.1984L37.3604 13.5543H36.4354H15.0987ZM6.35278 52.1585L5.88023 53.1142L6.84701 52.6648L13.0425 49.7847L13.5373 49.5547L13.1452 49.1752L9.91832 46.0516L9.54911 45.6943L9.32135 46.1549L6.35278 52.1585ZM24.6738 43.8901L24.0099 44.5342L24.9349 44.5343L46.2583 44.5349L46.6333 44.5349V44.1599V23.4723V22.586L45.9972 23.2031L24.6738 43.8901ZM18.9805 44.8766L18.9806 44.8765L47.1169 17.5726L47.1169 17.5726L54.3998 10.5075L54.6772 10.2383L54.3998 9.96919L50.3304 6.02181L50.0693 5.76852L49.8082 6.02183L42.5326 13.0805L42.5326 13.0805L10.8977 43.7787L10.6203 44.0479L10.8977 44.317L14.9664 48.2644L15.2278 48.518L15.4889 48.2641L18.838 45.0084L18.8396 45.0069C18.8565 44.9902 18.8744 44.9739 18.8987 44.9521L18.9028 44.9484C18.9248 44.9287 18.9525 44.9037 18.9805 44.8766ZM55.8189 6.41457L56.0792 6.66803L56.3408 6.41591L57.3594 5.43409L57.6387 5.16497L57.3603 4.89494L55.56 3.14824L55.2988 2.89491L55.0377 3.14824L54.0257 4.13007L53.7488 4.39872L54.0252 4.66788L55.8189 6.41457Z" fill="black" stroke="white" stroke-width="0.75"/>
</svg>
