<svg width="72" height="71" viewBox="0 0 72 71" fill="none" xmlns="http://www.w3.org/2000/svg">
<path d="M17.4856 30.718L17.4863 30.7153C19.1507 23.9828 24.6793 18.6449 31.5776 17.0881C37.5049 15.7505 43.5726 17.0149 48.2714 20.6456C52.8979 24.2807 55.6242 29.6903 55.7009 35.5424C55.6999 41.386 52.9016 46.8672 48.0457 50.5029L48.0374 50.5091L48.0295 50.5156C47.4165 51.0151 47.1453 51.7848 47.1453 52.5765V63.0727C47.1453 64.9157 45.5909 66.4517 43.6787 66.4517H41.1898H40.8364L40.7184 66.7849C40.0828 68.5807 38.3928 69.9505 36.2898 69.9505C34.1784 69.9505 32.4966 68.6492 31.863 66.7904L31.7476 66.4517H31.3898H28.9009C26.9887 66.4517 25.4342 64.9157 25.4342 63.0727V52.6525C25.4342 51.7678 25.0744 50.9301 24.4723 50.4395L24.4647 50.4333L24.4568 50.4274C18.2402 45.7567 15.5906 38.2046 17.4856 30.718ZM42.7453 62.736H43.2453V62.236V57.8246V57.3246H42.7453H29.6787H29.1787V57.8246V62.236V62.736H29.6787H42.7453ZM42.6676 53.685H43.1676V53.185V52.5765C43.1676 50.5252 44.1068 48.6983 45.6098 47.5779C49.5453 44.6715 51.7982 40.2671 51.8786 35.4715L51.8787 35.4715V35.4631C51.8787 30.7404 49.7034 26.4123 45.9281 23.5059C42.1489 20.5965 37.2506 19.5801 32.4456 20.6764C26.902 21.9336 22.4755 26.1767 21.1054 31.5363L21.1054 31.5363L21.1046 31.5393C19.5787 37.6652 21.75 43.7241 26.728 47.4955C28.2376 48.6927 29.1787 50.5996 29.1787 52.6525V53.185V53.685H29.6787H42.6676Z" fill="black" stroke="#E3EFFA"/>
<path d="M63.2016 33.5293H70.7461C71.014 33.5293 71.1368 33.5837 71.1932 33.6237C71.2434 33.6592 71.2932 33.72 71.3324 33.859C71.3743 34.0078 71.3931 34.2085 71.3969 34.4802C71.3991 34.6384 71.3966 34.7882 71.394 34.9507C71.3918 35.0838 71.3895 35.2255 71.3895 35.3871C71.3895 35.5488 71.3918 35.6905 71.394 35.8236C71.3966 35.986 71.3991 36.1359 71.3969 36.2941C71.3931 36.5658 71.3743 36.7665 71.3324 36.9153C71.2932 37.0542 71.2434 37.1151 71.1932 37.1506C71.1368 37.1906 71.014 37.245 70.7461 37.245H63.2016C62.9238 37.245 62.7815 37.1956 62.709 37.152C62.648 37.1153 62.5997 37.0613 62.5593 36.9504C62.5141 36.826 62.4867 36.6498 62.4751 36.3971C62.4665 36.2075 62.4674 36.0038 62.4683 35.7719C62.4687 35.6939 62.469 35.6128 62.469 35.528C62.469 35.4449 62.4687 35.364 62.4683 35.2852C62.4674 35.0455 62.4664 34.8243 62.4752 34.6128C62.4869 34.3328 62.5148 34.1114 62.5673 33.9412C62.6181 33.7765 62.6827 33.6893 62.7514 33.6378C62.8196 33.5866 62.9469 33.5293 63.2016 33.5293Z" fill="black" stroke="#E3EFFA"/>
<path d="M53.9019 15.6103L59.1393 10.2999C59.3233 10.1133 59.4459 10.0662 59.5122 10.0547C59.5723 10.0443 59.6533 10.0511 59.7856 10.1215C59.9261 10.1963 60.0881 10.3236 60.291 10.5098C60.409 10.6182 60.518 10.7243 60.636 10.8391C60.7326 10.9331 60.8352 11.033 60.9537 11.1448C61.0722 11.2565 61.178 11.3532 61.2775 11.4441C61.3992 11.5553 61.5116 11.658 61.6265 11.7694C61.8242 11.9609 61.9602 12.1147 62.0417 12.2493C62.1184 12.3761 62.1283 12.4549 62.1198 12.5141C62.1104 12.5793 62.0668 12.7008 61.8827 12.8874L56.6454 18.1978C56.4541 18.3918 56.3214 18.4559 56.2415 18.476C56.1737 18.4931 56.0995 18.4903 55.987 18.4404C55.862 18.385 55.7118 18.2807 55.5173 18.113C55.3714 17.9872 55.2216 17.8447 55.0515 17.6829C54.9944 17.6287 54.935 17.5722 54.8727 17.5135C54.8117 17.4559 54.7521 17.4001 54.6939 17.3457C54.5167 17.1799 54.3528 17.0266 54.203 16.8733C54.0045 16.6703 53.8597 16.4957 53.77 16.3389C53.6827 16.1865 53.6635 16.079 53.6731 15.9955C53.6826 15.9139 53.7274 15.7873 53.9019 15.6103Z" fill="black" stroke="#E3EFFA"/>
<path d="M34.3008 8.95354V1.57578C34.3008 1.31916 34.3549 1.205 34.3931 1.15349C34.4286 1.10566 34.4926 1.05446 34.6406 1.01457C34.7967 0.972504 35.0054 0.954117 35.284 0.950428C35.4458 0.948284 35.6001 0.950667 35.7669 0.953244C35.9032 0.955349 36.0479 0.957583 36.2119 0.957583C36.3759 0.957583 36.5205 0.955349 36.6568 0.953244C36.8237 0.950667 36.978 0.948284 37.1398 0.950428C37.4184 0.954117 37.6271 0.972504 37.7832 1.01457C37.9312 1.05446 37.9952 1.10566 38.0307 1.15349C38.0689 1.205 38.123 1.31916 38.123 1.57578V8.95354C38.123 9.22088 38.0735 9.35441 38.0315 9.4211C37.9957 9.47809 37.94 9.52746 37.821 9.5689C37.6897 9.61457 37.5058 9.64157 37.2461 9.65291C37.0514 9.66142 36.8419 9.66057 36.6045 9.65961C36.5249 9.65928 36.4422 9.65895 36.3559 9.65895C36.2713 9.65895 36.1889 9.65927 36.1084 9.65959C35.8631 9.66056 35.6358 9.66146 35.4187 9.65283C35.1313 9.6414 34.9016 9.61398 34.724 9.56157C34.5505 9.51037 34.4595 9.44507 34.4074 9.3787C34.3575 9.31505 34.3008 9.19633 34.3008 8.95354Z" fill="black" stroke="#E3EFFA"/>
<path d="M15.777 17.9463L10.4254 12.7459C10.2373 12.5631 10.1909 12.4424 10.1801 12.3774C10.1703 12.3184 10.1785 12.2394 10.2524 12.1112C10.3309 11.975 10.4635 11.8185 10.6569 11.6229C10.7695 11.5091 10.8796 11.4041 10.9988 11.2905C11.0963 11.1975 11.2 11.0986 11.316 10.9844C11.4321 10.8702 11.5325 10.7682 11.627 10.6722C11.7425 10.5549 11.8491 10.4466 11.9647 10.3358C12.1635 10.1455 12.3227 10.0148 12.4615 9.93719C12.5921 9.86412 12.6728 9.85561 12.7332 9.86481C12.7998 9.87496 12.9235 9.91949 13.1117 10.1023L18.4633 15.3026C18.6588 15.4927 18.7225 15.6235 18.7419 15.702C18.7583 15.7686 18.7543 15.841 18.7017 15.9502C18.6433 16.0715 18.5344 16.2168 18.36 16.4045C18.2292 16.5452 18.0814 16.6896 17.9134 16.8535C17.8571 16.9085 17.7985 16.9657 17.7375 17.0257C17.6777 17.0846 17.6197 17.142 17.5632 17.1981C17.3911 17.3689 17.2319 17.5268 17.0729 17.6711C16.8624 17.8621 16.6818 18.001 16.5202 18.0864C16.3631 18.1694 16.253 18.1866 16.1677 18.1759C16.0844 18.1654 15.9555 18.1197 15.777 17.9463Z" fill="black" stroke="#E3EFFA"/>
<path d="M1.7202 33.5293H9.26465C9.53256 33.5293 9.6554 33.5837 9.7118 33.6237C9.76191 33.6592 9.8118 33.72 9.85096 33.859C9.89289 34.0078 9.91166 34.2085 9.91542 34.4802C9.91761 34.6384 9.91519 34.7882 9.91256 34.9507C9.9104 35.0838 9.9081 35.2255 9.9081 35.3871C9.9081 35.5488 9.9104 35.6905 9.91256 35.8236C9.91519 35.986 9.91761 36.1359 9.91542 36.2941C9.91166 36.5658 9.89289 36.7665 9.85096 36.9153C9.8118 37.0542 9.76191 37.1151 9.7118 37.1506C9.6554 37.1906 9.53256 37.245 9.26465 37.245H1.7202C1.44236 37.245 1.30007 37.1956 1.22758 37.152C1.16655 37.1153 1.11826 37.0613 1.0779 36.9504C1.03265 36.826 1.00525 36.6498 0.993704 36.3971C0.985046 36.2075 0.985908 36.0038 0.98689 35.7719C0.987219 35.6939 0.987563 35.6128 0.987563 35.528C0.987563 35.4449 0.987229 35.364 0.986903 35.2852C0.985912 35.0455 0.984998 34.8243 0.993793 34.6128C1.00544 34.3328 1.03331 34.1114 1.08582 33.9412C1.13663 33.7765 1.20128 33.6893 1.26991 33.6378C1.33812 33.5866 1.46548 33.5293 1.7202 33.5293Z" fill="black" stroke="#E3EFFA"/>
<path d="M34.229 37.1899L34.5786 37.5318L34.9281 37.1899L40.5985 31.6449C40.8064 31.4586 40.9718 31.375 41.1022 31.3412C41.2281 31.3085 41.3548 31.3135 41.5046 31.3614C41.8434 31.4699 42.2256 31.7655 42.7879 32.2367C43.2949 32.6949 43.6616 33.0899 43.8114 33.4464C43.8803 33.61 43.8934 33.7439 43.8674 33.8649C43.841 33.988 43.7632 34.1488 43.5623 34.3453L36.1099 41.633C35.652 42.0119 35.1469 42.189 34.6563 42.189C34.0683 42.189 33.5777 41.9997 33.217 41.647L29.017 37.5398L29.0099 37.5328L29.0025 37.5261C28.8008 37.344 28.7124 37.1889 28.6766 37.0653C28.6416 36.9449 28.6442 36.8131 28.6968 36.6527C28.8119 36.3018 29.1391 35.8891 29.6422 35.3971L29.6494 35.3901L29.6562 35.3828C30.1149 34.8969 30.5034 34.5957 30.8432 34.4948C30.9994 34.4484 31.1416 34.4458 31.2839 34.487C31.4306 34.5294 31.609 34.6278 31.8179 34.8321L32.0975 34.5461L31.8179 34.8321L34.229 37.1899Z" fill="black" stroke="#E3EFFA"/>
</svg>
