<svg width="95" height="70" viewBox="0 0 95 70" fill="none" xmlns="http://www.w3.org/2000/svg">
<path d="M94.9503 43.5502C94.9503 38.8502 91.1503 35.0502 86.4503 35.0502C84.8503 35.0502 83.3503 35.4502 82.0503 36.2502C80.6503 33.3502 77.7503 31.4502 74.3503 31.4502C72.7503 31.4502 71.2503 31.8502 69.9503 32.6502C68.5503 29.7502 65.6503 27.8502 62.2503 27.8502C60.9503 27.8502 59.7503 28.1502 58.7503 28.6502V10.9502C58.7503 8.6502 57.8503 6.5502 56.2503 4.9502C54.6503 3.3502 52.4503 2.4502 50.1503 2.4502C45.4503 2.4502 41.6503 6.2502 41.6503 10.9502V51.0502L36.8503 46.3502C33.9503 43.4502 29.3503 43.0502 25.9503 45.3502C23.9503 46.7502 22.5503 48.8502 22.2503 51.2502C21.9503 53.6502 22.5503 56.1502 24.1503 57.9502L33.4503 68.9502C33.9503 69.5502 34.6503 69.8502 35.3503 69.8502C35.9503 69.8502 36.4503 69.6502 36.9503 69.2502C38.0503 68.3502 38.1503 66.7502 37.2503 65.7502L28.0503 54.8502C27.3503 54.0502 27.1503 53.0502 27.2503 52.0502C27.3503 51.0502 27.9503 50.1502 28.8503 49.5502C30.2503 48.5502 32.2503 48.7502 33.4503 49.9502L40.0503 56.5502C41.1503 57.6502 42.8503 57.9502 44.3503 57.3502C45.8503 56.7502 46.7503 55.3502 46.7503 53.7502V10.9502C46.7503 9.0502 48.3503 7.4502 50.2503 7.4502C51.3503 7.4502 52.0503 7.8502 52.7503 8.4502C53.4503 9.0502 53.7503 10.0502 53.7503 10.9502V40.3502C53.7503 41.7502 54.8503 42.8502 56.2503 42.8502C57.6503 42.8502 58.7503 41.7502 58.7503 40.3502V36.3502C58.7503 34.4502 60.3503 32.8502 62.2503 32.8502C64.1503 32.8502 65.7503 34.4502 65.7503 36.3502V43.9502C65.7503 45.3502 66.8503 46.4502 68.2503 46.4502C69.6503 46.4502 70.7503 45.3502 70.7503 43.9502V39.9502C70.7503 38.0502 72.3503 36.4502 74.2503 36.4502C76.1503 36.4502 77.7503 38.0502 77.7503 39.9502V47.5502C77.7503 48.9502 78.8503 50.0502 80.2503 50.0502C81.6503 50.0502 82.7503 48.9502 82.7503 47.5502V43.8502C82.7503 43.7502 82.7503 43.6502 82.7503 43.5502C82.7503 41.6502 84.3503 40.0502 86.2503 40.0502C88.1503 40.0502 89.7503 41.6502 89.7503 43.5502V67.2502C89.7503 68.6502 90.8503 69.7502 92.2503 69.7502C93.6503 69.7502 94.7503 68.6502 94.7503 67.2502L94.9503 43.5502Z" fill="#14A643"/>
<path d="M8.55 14.65H33.05C34.45 14.65 35.55 13.55 35.55 12.15C35.55 10.75 34.45 9.65 33.05 9.65H8.55L13.95 4.25C14.95 3.25 14.95 1.65 13.95 0.75C12.95 -0.25 11.35 -0.25 10.45 0.75L0.75 10.45C-0.25 11.45 -0.25 13.05 0.75 13.95L10.45 23.65C10.95 24.15 11.55 24.35 12.25 24.35C12.85 24.35 13.55 24.15 14.05 23.65C15.05 22.65 15.05 21.05 14.05 20.15L8.55 14.65Z" fill="#14A643"/>
</svg>
