<svg width="26" height="22" viewBox="0 0 26 22" fill="none" xmlns="http://www.w3.org/2000/svg">
<path d="M11.1998 10.8001V19.7001C11.1998 20.6001 11.9998 21.4001 12.8998 21.4001C13.7998 21.4001 14.5998 20.6001 14.5998 19.7001V10.6001L18.6998 14.8001C19.3998 15.5001 20.4998 15.5001 21.0998 14.8001C21.7998 14.1001 21.7998 13.0001 21.0998 12.3001L14.1998 5.3001C13.4998 4.6001 12.3998 4.6001 11.7998 5.3001L4.6998 12.4001C3.9998 13.1001 3.9998 14.2001 4.6998 14.8001C5.3998 15.5001 6.3998 15.5001 7.0998 14.8001L11.1998 10.8001ZM23.4998 0.100098C24.3998 0.100098 25.1998 0.900098 25.1998 1.8001C25.1998 2.7001 24.3998 3.5001 23.4998 3.5001H2.4998C1.5998 3.5001 0.799805 2.7001 0.799805 1.8001C0.799805 0.900098 1.5998 0.100098 2.4998 0.100098H23.4998Z" fill="#14A643"/>
</svg>
