<svg width="53" height="59" viewBox="0 0 53 59" fill="none" xmlns="http://www.w3.org/2000/svg">
<path d="M17.6467 12.292H17.8967V12.042V2.42601C17.8967 1.94325 18.1099 1.57025 18.5049 1.29238C18.9036 1.0752 19.4148 1.02198 19.8663 1.18473C25.0549 3.329 28.4169 8.17521 28.3522 13.6417L28.3522 13.6417V13.6446C28.3522 18.4877 25.7634 22.8301 21.4821 25.2875L21.3565 25.3596V25.5043V56.9165C21.3565 57.6691 20.7494 58.2692 19.9566 58.2692H8.86919C8.07641 58.2692 7.46927 57.6691 7.46927 56.9165V25.5043V25.3577L7.3413 25.2861C3.06381 22.8939 0.473633 18.4895 0.473633 13.6446C0.473633 8.17373 3.77315 3.32805 8.95959 1.18471C9.43608 1.01246 9.93667 1.02574 10.3106 1.28518C10.7075 1.56055 10.9291 1.99779 10.9291 2.42601V12.042V12.292H11.1791H17.6467ZM19.3297 23.3619L19.3298 23.3621L19.3383 23.358C23.1828 21.5236 25.6183 17.7844 25.6183 13.6446C25.6183 10.1633 23.9271 7.01299 21.1605 4.9811L20.7626 4.6888V5.18259V13.6446C20.7626 14.3973 20.1554 14.9973 19.3626 14.9973H9.59515C8.80237 14.9973 8.19523 14.3973 8.19523 13.6446V5.18259V4.6888L7.79725 4.9811C5.03067 7.01299 3.33946 10.1633 3.33946 13.6446C3.33946 17.7816 5.70648 21.5224 9.55348 23.358L9.55341 23.3582L9.56205 23.3619C10.063 23.5782 10.3351 23.9999 10.3351 24.5427V55.3139V55.5639H10.5851H18.3067H18.5567V55.3139V24.5427C18.5567 24.058 18.8341 23.5759 19.3297 23.3619Z" fill="black" stroke="white" stroke-width="0.5"/>
<path d="M49.273 25.8253V26.0753H49.523H50.5129C51.3057 26.0753 51.9128 26.6753 51.9128 27.4279V56.9169C51.9128 57.6695 51.3057 58.2696 50.5129 58.2696H39.4255C38.6327 58.2696 38.0256 57.6695 38.0256 56.9169V27.4279C38.0256 26.6753 38.6327 26.0753 39.4255 26.0753H40.4154H40.6654V25.8253V14.7348V14.6696L40.6336 14.6127L38.1917 10.2534L38.1861 10.2435L38.1797 10.2341C37.9751 9.93607 37.9616 9.57654 38.0792 9.17176L40.7144 2.00446C40.9445 1.44998 41.4521 1.07373 42.0654 1.07373H47.8731C48.4863 1.07373 48.9939 1.44997 49.224 2.00445L51.8612 9.17702C51.9654 9.48373 51.9158 9.92207 51.7445 10.2574L49.3049 14.6127L49.273 14.6696V14.7348V25.8253ZM40.9724 9.39273L40.9332 9.50067L40.9896 9.60075L43.2971 13.6994C43.4117 13.9234 43.4653 14.1396 43.4653 14.3502V25.8253V26.0753H43.7153H46.2232H46.4732V25.8253V14.3502C46.4732 14.1392 46.5269 13.9226 46.642 13.6981L48.8844 9.59806L48.9386 9.49893L48.9 9.39273L46.9201 3.94368L46.8603 3.77905H46.6851H43.1873H43.0122L42.9523 3.94368L40.9724 9.39273ZM48.863 55.5642H49.113V55.3142V29.0306V28.7806H48.863H47.8731H42.0654H41.1414H40.8914V29.0306V55.3142V55.5642H41.1414H48.863Z" fill="black" stroke="white" stroke-width="0.5"/>
</svg>
